<svg width="225" height="65" viewBox="0 0 225 65" fill="none" xmlns="http://www.w3.org/2000/svg">
<path d="M23.5516 0.454942C10.6977 2.72637 1.26971 13.9851 0.999554 27.1059C0.963948 30.092 1.31135 33.0704 2.03318 35.9672C2.04535 36.0196 2.0723 36.0673 2.1108 36.1047C2.14929 36.1421 2.1977 36.1675 2.2502 36.1779C2.3027 36.1883 2.35707 36.1832 2.40677 36.1633C2.45648 36.1434 2.49942 36.1095 2.53043 36.0656C5.55285 31.9903 9.47932 28.6804 13.9976 26.3989C18.5158 24.1175 23.5012 22.9276 28.5572 22.9238C33.6132 22.9199 38.6004 24.1023 43.122 26.3769C47.6437 28.6515 51.5751 31.9556 54.6036 36.0263C54.6343 36.0701 54.677 36.1041 54.7264 36.1243C54.7759 36.1444 54.83 36.1499 54.8825 36.1399C54.9349 36.1299 54.9834 36.105 55.0221 36.0681C55.0608 36.0312 55.0882 35.9839 55.1009 35.9318C55.7554 33.2461 56.097 30.4929 56.1188 27.7279C56.1169 23.6621 55.2261 19.6466 53.5096 15.9653C51.793 12.2841 49.2928 9.02724 46.1856 6.42524C43.0785 3.82324 39.4406 1.93974 35.5293 0.908035C31.618 -0.123669 27.5289 -0.278353 23.5516 0.454942Z" fill="white"/>
<path d="M35.7824 61.6029C35.2734 61.4415 34.7175 61.2919 34.1262 61.162C34.74 60.1708 35.0779 59.0322 35.1047 57.8649C35.1315 56.6977 34.8462 55.5446 34.2786 54.526C33.711 53.5074 32.8819 52.6606 31.8778 52.0741C30.8737 51.4876 29.7314 51.1828 28.5702 51.1916C27.409 51.2003 26.2714 51.5223 25.2761 52.1239C24.2809 52.7255 23.4645 53.5846 22.9121 54.6117C22.3598 55.6387 22.0917 56.796 22.1359 57.9627C22.1801 59.1295 22.535 60.2629 23.1635 61.2447C22.6332 61.3809 22.1104 61.5452 21.5974 61.7368C21.4929 61.7783 21.4033 61.8504 21.3401 61.9437C21.2769 62.0371 21.2432 62.1474 21.2432 62.2603C21.2432 62.3733 21.2769 62.4836 21.3401 62.5769C21.4033 62.6703 21.4929 62.7424 21.5974 62.7839C23.8261 63.7391 26.2221 64.237 28.6449 64.2483C31.1265 64.1824 33.5729 63.6413 35.8529 62.654C35.9583 62.61 36.0474 62.534 36.1077 62.4366C36.1681 62.3392 36.1967 62.2253 36.1896 62.1107C36.1831 61.9939 36.1404 61.882 36.0673 61.7909C35.9943 61.6998 35.8946 61.6341 35.7824 61.6029ZM31.2094 58.8473C31.0017 59.3588 30.6439 59.7945 30.1836 60.0963C29.7233 60.398 29.1824 60.5514 28.6331 60.5361H28.6096C28.0611 60.5526 27.5207 60.4006 27.0604 60.1002C26.6001 59.7999 26.2418 59.3655 26.0334 58.8552C25.85 58.4131 25.7783 57.9322 25.8248 57.4555C25.8713 56.9788 26.0344 56.521 26.2996 56.1231C26.557 55.7424 26.9031 55.4307 27.3078 55.2152C27.7125 54.9998 28.1635 54.8872 28.6214 54.8872C29.0793 54.8872 29.5302 54.9998 29.9349 55.2152C30.3396 55.4307 30.6857 55.7424 30.9431 56.1231C31.211 56.5214 31.3757 56.9806 31.4222 57.4591C31.4687 57.9376 31.3955 58.4202 31.2094 58.863V58.8473Z" fill="white"/>
<path d="M54.0009 39.2936C51.122 35.232 47.3138 31.9261 42.8975 29.6549C38.4812 27.3836 33.5863 26.2137 28.626 26.2437C23.6458 26.2512 18.7392 27.4526 14.3132 29.7481C9.88727 32.0437 6.06949 35.3673 3.17665 39.4432C3.10078 39.551 3.05131 39.6753 3.03226 39.806C3.01321 39.9366 3.02512 40.07 3.06703 40.1951C3.61895 41.81 4.27282 43.3879 5.02466 44.9191C5.94084 46.8086 7.0841 48.7848 7.69097 49.8083C7.73718 49.8917 7.8032 49.9623 7.88312 50.0138C7.96305 50.0653 8.05441 50.0962 8.14906 50.1036C8.26653 50.1109 8.38326 50.0805 8.48247 50.0168C8.58168 49.9532 8.65824 49.8595 8.70112 49.7493C10.2021 45.9635 12.7393 42.6829 16.0186 40.2877C19.298 37.8924 23.1854 36.4805 27.2301 36.2155C31.2749 35.9506 35.3116 36.8436 38.8723 38.7909C42.433 40.7381 45.3721 43.6601 47.3488 47.218C47.3754 47.2675 47.3869 47.3237 47.382 47.3796C47.3772 47.4356 47.3561 47.4889 47.3214 47.533L45.8023 49.3871C45.7877 49.4054 45.7688 49.4196 45.7472 49.4285C45.7257 49.4374 45.7023 49.4406 45.6792 49.4378C45.6561 49.4351 45.634 49.4264 45.6151 49.4127C45.5963 49.399 45.5812 49.3807 45.5713 49.3596C43.8643 45.8779 41.137 43.0059 37.7567 41.1306C34.3765 39.2552 30.5058 38.4667 26.6661 38.8712C22.8265 39.2757 19.2024 40.8538 16.2821 43.3929C13.3619 45.932 11.2859 49.31 10.3338 53.0718C10.3041 53.1929 10.3021 53.3192 10.3278 53.4413C10.3536 53.5633 10.4065 53.6779 10.4826 53.7765C11.4027 54.9574 14.758 59.0712 19.4211 61.7009C19.5055 61.7463 19.5995 61.7706 19.6952 61.7717C19.7754 61.7721 19.8546 61.7551 19.9276 61.7218C20.0006 61.6885 20.0656 61.6397 20.1181 61.5788C20.1836 61.5003 20.2269 61.4055 20.2434 61.3044C20.26 61.2033 20.2491 61.0995 20.212 61.0041C19.7887 59.7717 19.5872 58.4733 19.6169 57.1698C19.6272 56.0769 19.8552 54.9972 20.2876 53.9945C20.7201 52.9917 21.348 52.0863 22.1344 51.3318C23.0124 50.4632 24.0523 49.7775 25.1945 49.3141C26.3367 48.8507 27.5588 48.6186 28.7904 48.6313C31.1583 48.6816 33.4129 49.6602 35.0733 51.3583C36.7337 53.0564 37.6684 55.3396 37.6781 57.7209C37.5917 58.8043 37.3721 59.8727 37.0242 60.9017C36.9904 61.0023 36.9848 61.1104 37.0083 61.2139C37.0318 61.3175 37.0834 61.4124 37.1573 61.4883C37.2478 61.5787 37.3664 61.6351 37.4933 61.648C37.6202 61.6609 37.7476 61.6295 37.8543 61.5592L40.8964 59.5515C41.0038 59.4847 41.0947 59.3945 41.1625 59.2875C41.2303 59.1805 41.2732 59.0594 41.288 58.9334C41.3271 58.5201 41.3467 58.1107 41.3467 57.7209C41.3514 54.6075 40.2241 51.5998 38.1769 49.2639C36.1297 46.9279 33.3039 45.425 30.2314 45.0379C27.1589 44.6508 24.0517 45.4064 21.4946 47.1623C18.9375 48.9182 17.107 51.5533 16.3476 54.5716C16.3425 54.5949 16.3315 54.6165 16.3157 54.6342C16.2998 54.6519 16.2796 54.6652 16.2572 54.6727C16.2347 54.6802 16.2106 54.6818 16.1874 54.6772C16.1641 54.6726 16.1424 54.662 16.1245 54.6464L14.4879 53.2253C14.4456 53.1897 14.4149 53.1422 14.3995 53.0889C14.3842 53.0356 14.385 52.979 14.4018 52.9261C15.4754 49.6645 17.6224 46.868 20.4887 44.9977C23.355 43.1273 26.7696 42.2948 30.1696 42.6373C33.5697 42.9798 36.7521 44.4769 39.1925 46.8818C41.6328 49.2866 43.1853 52.4558 43.5941 55.8668C43.6046 55.965 43.6391 56.0592 43.6944 56.1409C43.7497 56.2226 43.8242 56.2893 43.9112 56.3353C44.0188 56.3864 44.1398 56.4018 44.2567 56.3792C44.3735 56.3565 44.4802 56.297 44.5611 56.2093C45.7967 54.863 46.9474 53.4404 48.0066 51.9499C49.3339 50.076 50.5711 47.9542 51.0448 47.1275C51.1093 47.0064 51.143 46.8712 51.143 46.7338C51.143 46.5965 51.1093 46.4613 51.0448 46.3402C49.0784 42.4347 46.1356 39.1105 42.5054 36.6939C38.8752 34.2774 34.6823 32.8517 30.3385 32.5567C25.9947 32.2617 21.6492 33.1076 17.7288 35.0113C13.8084 36.915 10.4477 39.8111 7.97679 43.4153C7.96291 43.4356 7.94386 43.4518 7.92163 43.4622C7.89941 43.4725 7.87482 43.4768 7.85043 43.4743C7.82604 43.4719 7.80274 43.463 7.78296 43.4484C7.76318 43.4339 7.74763 43.4143 7.73795 43.3916L6.68866 41.0927C6.66741 41.0457 6.65911 40.9939 6.66462 40.9427C6.67013 40.8914 6.68925 40.8426 6.71997 40.8013C9.43397 37.2475 12.9624 34.4062 17.0045 32.5197C21.0466 30.6332 25.4824 29.7574 29.9339 29.967C34.3854 30.1765 38.7204 31.4653 42.5695 33.7233C46.4185 35.9813 49.6675 39.1417 52.0393 42.935C52.093 43.0235 52.1702 43.0953 52.2621 43.1423C52.3541 43.1893 52.4572 43.2096 52.56 43.201C52.6627 43.1925 52.7611 43.1553 52.8441 43.0937C52.9271 43.0321 52.9914 42.9486 53.0299 42.8523C53.1943 42.4587 53.4214 41.8721 53.6446 41.3171C53.8364 40.8289 54.0009 40.3644 54.1105 40.0613C54.1541 39.9337 54.1669 39.7976 54.1478 39.6641C54.1287 39.5307 54.0784 39.4037 54.0009 39.2936Z" fill="white"/>
<path d="M73.3459 22.5312C75.8647 20.0118 79.1875 18.752 83.3142 18.752C84.9525 18.7172 86.5833 18.984 88.1261 19.5394C89.4669 20.0699 90.7352 20.7696 91.9004 21.6218C92.01 21.7024 92.0869 21.8201 92.1171 21.9531C92.1473 22.0862 92.1288 22.2258 92.0649 22.3462L90.3265 25.6136C90.2892 25.6828 90.2379 25.7433 90.1758 25.7912C90.1137 25.8391 90.0423 25.8732 89.9661 25.8914C89.89 25.9096 89.8109 25.9115 89.734 25.8968C89.6571 25.8822 89.5842 25.8514 89.5199 25.8065C87.7352 24.4831 85.5825 23.7561 83.3651 23.7279C80.8828 23.7279 78.9017 24.4903 77.4217 26.0151C75.9938 27.5818 75.2017 29.6297 75.2017 31.7547C75.2017 33.8797 75.9938 35.9276 77.4217 37.4943C78.9017 39.0191 80.8828 39.7815 83.3651 39.7815C85.5825 39.7533 87.7352 39.0263 89.5199 37.7029C89.5842 37.658 89.6571 37.6272 89.734 37.6126C89.8109 37.5979 89.89 37.5998 89.9661 37.618C90.0423 37.6362 90.1137 37.6703 90.1758 37.7182C90.2379 37.7661 90.2892 37.8266 90.3265 37.8958L92.0805 41.1475C92.145 41.2671 92.1639 41.4063 92.1336 41.5389C92.1033 41.6715 92.026 41.7885 91.9161 41.8679C90.7518 42.7227 89.4834 43.4239 88.1417 43.9543C86.599 44.5096 84.9682 44.7765 83.3299 44.7416C79.2006 44.7416 75.8778 43.4819 73.3616 40.9625C70.942 38.5139 69.584 35.2024 69.584 31.7508C69.584 28.2991 70.942 24.9876 73.3616 22.5391L73.3459 22.5312Z" fill="white"/>
<path d="M99.7932 29.9092C99.9551 28.9409 100.382 28.0371 101.027 27.2992C101.487 26.7292 102.068 26.27 102.728 25.9553C103.388 25.6406 104.11 25.4783 104.84 25.4805C105.135 25.483 105.429 25.5053 105.721 25.5474C105.854 25.5656 105.976 25.632 106.064 25.7342C106.152 25.8364 106.2 25.9673 106.199 26.1025V30.232C106.199 30.3135 106.181 30.3941 106.147 30.4681C106.113 30.542 106.063 30.6077 106.001 30.6605C105.939 30.7133 105.867 30.7519 105.789 30.7738C105.711 30.7956 105.629 30.8002 105.549 30.7871C105.018 30.7031 104.481 30.6623 103.943 30.665C102.919 30.6392 101.918 30.9764 101.117 31.6177C100.725 31.9406 100.415 32.3515 100.211 32.8172C100.007 33.2829 99.9149 33.7903 99.942 34.2985V43.7779C99.942 43.9272 99.883 44.0704 99.778 44.176C99.673 44.2815 99.5306 44.3408 99.3821 44.3408H95.1614C95.013 44.3408 94.8706 44.2815 94.7656 44.176C94.6606 44.0704 94.6016 43.9272 94.6016 43.7779V26.4371C94.6026 26.2885 94.662 26.1463 94.7669 26.0416C94.8718 25.9369 95.0136 25.8781 95.1614 25.8781H99.2373C99.3844 25.8791 99.5252 25.9383 99.6293 26.043C99.7333 26.1476 99.7922 26.2891 99.7932 26.4371V29.9092Z" fill="white"/>
<path d="M109.872 28.1804C111.836 26.4372 114.367 25.4769 116.987 25.4805C119.608 25.4841 122.136 26.4514 124.096 28.2001C125.034 29.0865 125.782 30.1568 126.293 31.3451C126.805 32.5333 127.068 33.8142 127.068 35.1088C127.068 36.4035 126.805 37.6844 126.293 38.8726C125.782 40.0608 125.034 41.1312 124.096 42.0176C122.136 43.7675 119.605 44.7339 116.984 44.7339C114.362 44.7339 111.832 43.7675 109.872 42.0176C108.926 41.1334 108.172 40.0627 107.656 38.8723C107.14 37.6819 106.874 36.3974 106.874 35.099C106.874 33.8006 107.14 32.5161 107.656 31.3257C108.172 30.1353 108.926 29.0646 109.872 28.1804ZM113.521 38.6872C113.972 39.1462 114.51 39.5105 115.103 39.7591C115.696 40.0078 116.332 40.1358 116.974 40.1358C117.616 40.1358 118.252 40.0078 118.845 39.7591C119.438 39.5105 119.975 39.1462 120.427 38.6872C120.9 38.2216 121.273 37.6634 121.522 37.0473C121.772 36.4312 121.894 35.7701 121.88 35.1049C121.895 34.4425 121.773 33.7842 121.523 33.1712C121.273 32.5582 120.9 32.0036 120.427 31.5422C119.736 30.8526 118.857 30.3854 117.901 30.2002C116.945 30.015 115.956 30.1202 115.06 30.5024C114.163 30.8845 113.401 31.5264 112.869 32.346C112.336 33.1657 112.059 34.1261 112.072 35.1049C112.056 35.7701 112.176 36.4315 112.425 37.0479C112.674 37.6643 113.047 38.2224 113.521 38.6872Z" fill="white"/>
<path d="M129.788 52.1983V26.4371C129.789 26.2884 129.849 26.1463 129.953 26.0416C130.058 25.9368 130.2 25.8781 130.348 25.8781H134.565C134.712 25.8781 134.854 25.937 134.958 26.0418C135.062 26.1466 135.121 26.2888 135.121 26.4371V28.5746C136.554 26.5119 138.475 25.4805 140.884 25.4805C143.606 25.4805 145.778 26.399 147.399 28.2361C149.02 30.0732 149.832 32.3892 149.834 35.1842C149.834 37.8926 149.051 40.1588 147.485 41.9828C145.919 43.8068 143.754 44.7187 140.99 44.7187C139.827 44.7275 138.68 44.4576 137.642 43.9314C136.644 43.4366 135.778 42.7091 135.117 41.8096V52.1865C135.117 52.2603 135.103 52.3334 135.076 52.4017C135.048 52.4699 135.007 52.532 134.955 52.5843C134.904 52.6367 134.842 52.6782 134.774 52.7065C134.707 52.7349 134.634 52.7495 134.561 52.7495H130.348C130.202 52.7495 130.061 52.6918 129.956 52.5888C129.852 52.4857 129.791 52.3456 129.788 52.1983ZM143.21 31.3657C142.791 30.8645 142.264 30.466 141.669 30.2006C141.074 29.9352 140.426 29.81 139.776 29.8344C139.145 29.814 138.516 29.9198 137.926 30.1455C137.336 30.3712 136.796 30.7123 136.338 31.1492C135.435 32.0284 134.982 33.2697 134.98 34.8732C134.98 36.5555 135.433 37.894 136.338 38.8886C136.792 39.3829 137.347 39.7724 137.965 40.03C138.582 40.2875 139.249 40.4072 139.917 40.3806C140.552 40.4083 141.184 40.288 141.765 40.0292C142.345 39.7704 142.859 39.38 143.264 38.8886C144.077 37.802 144.511 36.4771 144.502 35.1178C144.492 33.7586 144.038 32.4402 143.21 31.3657Z" fill="white"/>
<path d="M152.697 43.7775V18.8823C152.697 18.733 152.756 18.5898 152.861 18.4842C152.966 18.3786 153.109 18.3193 153.257 18.3193H157.474C157.622 18.3204 157.763 18.3801 157.867 18.4856C157.971 18.5911 158.03 18.7336 158.03 18.8823V43.7775C158.03 43.9261 157.971 44.0687 157.867 44.1741C157.763 44.2796 157.622 44.3394 157.474 44.3404H153.257C153.109 44.3404 152.966 44.2811 152.861 44.1755C152.756 44.07 152.697 43.9268 152.697 43.7775Z" fill="white"/>
<path d="M180.938 26.4371V43.778C180.938 43.9266 180.879 44.0692 180.775 44.1746C180.671 44.2801 180.53 44.3398 180.382 44.3409H176.165C176.017 44.3409 175.874 44.2816 175.769 44.176C175.664 44.0704 175.605 43.9272 175.605 43.778V41.6404C174.172 43.7031 172.251 44.7345 169.842 44.7345C167.12 44.7345 164.948 43.816 163.327 41.9789C161.706 40.1418 160.896 37.8271 160.896 35.0347C160.896 32.3237 161.679 30.0562 163.245 28.2322C164.811 26.4083 166.977 25.4963 169.744 25.4963C170.905 25.488 172.051 25.7579 173.088 26.2836C174.087 26.7775 174.954 27.5067 175.613 28.4094V26.4411C175.614 26.2924 175.674 26.1503 175.778 26.0456C175.883 25.9408 176.025 25.8821 176.173 25.8821H180.39C180.535 25.8851 180.673 25.9447 180.775 26.0482C180.878 26.1518 180.936 26.2912 180.938 26.4371ZM167.516 38.8493C167.935 39.3518 168.462 39.7511 169.058 40.0165C169.654 40.282 170.303 40.4066 170.954 40.3806C171.584 40.402 172.213 40.2967 172.802 40.0709C173.392 39.8452 173.931 39.5035 174.388 39.0658C175.296 38.1919 175.75 36.9505 175.75 35.3418C175.75 33.6648 175.296 32.3276 174.388 31.3303C173.934 30.8353 173.38 30.4452 172.762 30.1869C172.144 29.9286 171.478 29.8083 170.809 29.8344C170.174 29.8075 169.542 29.9285 168.961 30.188C168.38 30.4475 167.867 30.8385 167.461 31.3303C166.651 32.4171 166.218 33.741 166.228 35.0991C166.238 36.4572 166.69 37.7746 167.516 38.8493Z" fill="white"/>
<path d="M185.362 25.8774H189.578C189.726 25.8774 189.868 25.9362 189.973 26.0409C190.078 26.1456 190.137 26.2878 190.138 26.4364V28.4047C190.765 27.4757 191.615 26.721 192.61 26.211C193.604 25.701 194.711 25.4522 195.827 25.4877C200.197 25.4877 202.38 28.427 202.377 34.3057V43.7851C202.378 43.8589 202.364 43.932 202.336 44.0002C202.309 44.0685 202.268 44.1306 202.216 44.1829C202.164 44.2353 202.103 44.2768 202.035 44.3051C201.967 44.3335 201.895 44.3481 201.822 44.3481H197.605C197.456 44.3481 197.314 44.2887 197.209 44.1832C197.104 44.0776 197.045 43.9344 197.045 43.7851V34.4041C197.045 31.4097 195.912 29.9112 193.646 29.9085C193.139 29.8756 192.632 29.972 192.172 30.1888C191.712 30.4056 191.314 30.7357 191.015 31.1486C190.387 32.1272 190.08 33.2799 190.138 34.4435V43.7773C190.138 43.9265 190.079 44.0697 189.974 44.1753C189.869 44.2809 189.727 44.3402 189.578 44.3402H185.362C185.288 44.3402 185.216 44.3256 185.148 44.2973C185.08 44.2689 185.019 44.2274 184.967 44.1751C184.915 44.1227 184.875 44.0607 184.847 43.9924C184.819 43.9241 184.805 43.851 184.806 43.7773V26.4364C184.806 26.2882 184.864 26.146 184.969 26.0412C185.073 25.9363 185.214 25.8774 185.362 25.8774Z" fill="white"/>
<path d="M225 18.8823V43.7775C225 43.9261 224.942 44.0687 224.838 44.1741C224.734 44.2796 224.592 44.3394 224.444 44.3404H220.228C220.079 44.3404 219.937 44.2811 219.832 44.1755C219.727 44.0699 219.668 43.9268 219.668 43.7775V41.6399C218.235 43.7027 216.314 44.7341 213.904 44.7341C211.182 44.7341 209.01 43.8155 207.389 41.9784C205.768 40.1413 204.958 37.8266 204.958 35.0342C204.958 32.3232 205.741 30.0557 207.307 28.2317C208.873 26.4078 211.038 25.4958 213.803 25.4958C214.965 25.4875 216.112 25.7574 217.15 26.2831C218.149 26.7771 219.014 27.5064 219.672 28.4089V18.8823C219.672 18.733 219.731 18.5898 219.836 18.4842C219.941 18.3786 220.083 18.3193 220.231 18.3193H224.448C224.595 18.3214 224.736 18.3816 224.839 18.487C224.942 18.5923 225 18.7343 225 18.8823ZM211.579 38.8488C211.997 39.3513 212.525 39.7506 213.121 40.016C213.717 40.2815 214.365 40.4061 215.016 40.3802C215.647 40.4015 216.275 40.2962 216.865 40.0705C217.454 39.8447 217.993 39.503 218.45 39.0653C219.358 38.1914 219.813 36.95 219.813 35.3413C219.813 33.6643 219.358 32.3271 218.45 31.3299C217.997 30.8348 217.442 30.4447 216.824 30.1864C216.206 29.9281 215.54 29.8079 214.871 29.834C214.237 29.8073 213.604 29.9285 213.024 30.188C212.443 30.4474 211.93 30.8382 211.524 31.3299C210.714 32.4166 210.28 33.7405 210.29 35.0986C210.3 36.4567 210.753 37.7741 211.579 38.8488Z" fill="white"/>
</svg>
