<svg width="280" height="102" xmlns="http://www.w3.org/2000/svg" xmlns:xlink="http://www.w3.org/1999/xlink" xml:space="preserve" overflow="hidden"><g transform="translate(-500 -309)"><path d="M579.64 365.325C578.9 362.275 576.95 360.085 574.7 358.485 572.45 356.885 569.48 356.085 565.79 356.085 560.67 356.085 556.7 357.635 553.88 360.725 551.05 363.815 549.64 368.295 549.64 374.175 549.64 377.865 550.33 381.025 551.71 383.655 553.09 386.285 555.02 388.275 557.52 389.625 560.01 390.985 562.93 391.665 566.26 391.665 568.8 391.665 571.05 391.455 573.03 391.035 574.93 390.635 576.41 390.205 577.9 389.585 578.02 389.535 578.1 389.415 578.09 389.285L578.03 382.445C578.03 382.195 577.75 382.045 577.55 382.185 577.01 382.535 576.41 382.765 575.57 383.085 574.48 383.505 573.3 383.855 572.03 384.115 570.76 384.385 569.42 384.515 567.99 384.515 564.61 384.515 562.11 383.605 560.48 381.775 559.23 380.375 558.67 379.315 558.38 376.925 558.37 376.835 558.44 376.745 558.54 376.745L579.97 376.745C580.14 376.745 580.28 376.605 580.28 376.435 580.33 372.475 580.36 368.285 579.64 365.325ZM561.56 363.725C562.69 363.035 564.02 362.695 565.53 362.695 568.02 362.695 569.84 363.465 571 364.995 571.85 366.125 572.41 367.785 572.68 369.985 572.69 370.075 572.62 370.165 572.52 370.165L558.44 370.165C558.34 370.165 558.27 370.075 558.28 369.985 558.43 368.895 558.65 367.955 558.95 367.165 559.56 365.555 560.43 364.415 561.56 363.725Z" fill="#19294B"/><path d="M584.83 360.275C584.83 360.085 584.94 359.905 585.11 359.825 585.98 359.425 587 359.025 588.16 358.625 589.45 358.185 590.85 357.795 592.36 357.455 593.87 357.125 595.4 356.855 596.93 356.655 598.46 356.455 599.92 356.355 601.3 356.355 604.41 356.355 606.99 356.765 609.04 357.585 611.09 358.405 612.64 359.695 613.71 361.455 614.78 363.215 615.31 365.515 615.31 368.365L615.31 390.475C615.31 390.645 615.17 390.785 615 390.785L607.22 390.785C607.05 390.785 606.91 390.645 606.91 390.475L606.91 369.835C606.91 368.995 606.8 368.175 606.58 367.395 606.36 366.615 605.98 365.925 605.45 365.325 604.92 364.725 604.18 364.245 603.25 363.895 602.32 363.535 601.11 363.365 599.65 363.365 598.54 363.365 597.4 363.485 596.25 363.735 595.19 363.965 594.25 364.215 593.45 364.495 593.32 364.535 593.24 364.655 593.24 364.795L593.24 390.485C593.24 390.655 593.1 390.795 592.93 390.795L585.15 390.795C584.98 390.795 584.84 390.655 584.84 390.485L584.83 360.275Z" fill="#19294B"/><path d="M656.09 391.795C650.57 391.795 646.44 390.265 643.68 387.195 640.92 384.125 639.54 379.695 639.54 373.915 639.54 367.735 640.95 363.235 643.78 360.435 646.6 357.635 650.69 356.235 656.03 356.235 659.77 356.235 662.88 356.895 665.37 358.205 667.86 359.515 669.72 361.485 670.94 364.115 672.16 366.745 672.78 370.015 672.78 373.925 672.78 379.705 671.35 384.135 668.48 387.205 665.6 390.255 661.47 391.795 656.09 391.795ZM656.09 384.915C658.05 384.915 659.64 384.455 660.86 383.545 662.08 382.635 662.98 381.365 663.56 379.745 664.14 378.125 664.43 376.175 664.43 373.905 664.43 371.365 664.13 369.305 663.53 367.695 662.93 366.095 662.02 364.915 660.79 364.155 659.57 363.395 658 363.025 656.09 363.025 654.13 363.025 652.54 363.425 651.32 364.225 650.1 365.025 649.22 366.225 648.68 367.825 648.15 369.425 647.88 371.455 647.88 373.895 647.88 377.455 648.51 380.175 649.78 382.065 651.05 383.975 653.16 384.915 656.09 384.915Z" fill="#19294B"/><path d="M539.14 350.225 531.09 353.975C530.98 354.025 530.91 354.135 530.91 354.265L530.91 381.845C530.91 385.095 531.82 387.575 533.65 389.285 535.47 390.995 538.1 391.855 541.52 391.855 542.5 391.855 543.51 391.765 544.56 391.585 545.53 391.415 546.42 391.135 547.22 390.735 547.33 390.685 547.39 390.575 547.39 390.455L547.39 383.925C547.39 383.685 547.14 383.535 546.93 383.645 546.49 383.875 545.99 384.075 545.42 384.235 544.64 384.455 543.9 384.565 543.18 384.565 541.85 384.565 540.91 384.235 540.38 383.565 539.85 382.895 539.58 381.875 539.58 380.495L539.58 364.145C539.58 363.975 539.72 363.835 539.89 363.835L547.07 363.835C547.24 363.835 547.38 363.695 547.38 363.525L547.38 357.485C547.38 357.315 547.24 357.175 547.07 357.175L539.9 357.175C539.73 357.175 539.59 357.035 539.59 356.865L539.59 350.535C539.59 350.285 539.35 350.125 539.14 350.225Z" fill="#19294B"/><path d="M629.1 350.225 621.06 353.975C620.95 354.025 620.88 354.135 620.88 354.265L620.88 381.855C620.88 385.105 621.79 387.585 623.62 389.295 625.44 391.005 628.07 391.865 631.49 391.865 632.47 391.865 633.48 391.775 634.53 391.595 635.5 391.425 636.39 391.145 637.19 390.745 637.3 390.695 637.36 390.585 637.36 390.465L637.36 383.935C637.36 383.695 637.11 383.545 636.9 383.655 636.46 383.885 635.96 384.085 635.39 384.245 634.61 384.465 633.87 384.575 633.15 384.575 631.82 384.575 630.88 384.245 630.35 383.575 629.82 382.905 629.55 381.885 629.55 380.505L629.55 364.145C629.55 363.975 629.69 363.835 629.86 363.835L637.04 363.835C637.21 363.835 637.35 363.695 637.35 363.525L637.35 357.485C637.35 357.315 637.21 357.175 637.04 357.175L629.86 357.175C629.69 357.175 629.55 357.035 629.55 356.865L629.54 350.535C629.55 350.285 629.31 350.125 629.1 350.225Z" fill="#19294B"/><path d="M515.03 368.435 525.1 359.835C525.17 359.775 525.2 359.695 525.2 359.605L525.2 354.475C525.2 354.305 525.06 354.165 524.89 354.165L502.57 354.165C502.4 354.165 502.26 354.305 502.26 354.475L502.26 360.755C502.26 360.925 502.4 361.065 502.57 361.065L513.08 361.065C513.22 361.065 513.29 361.235 513.19 361.335L504.7 368.895C504.58 369.015 504.51 369.175 504.51 369.345L504.51 374.455C504.51 374.625 504.65 374.765 504.82 374.765L508.78 374.765C514.09 374.765 516.99 377.185 516.99 380.005 516.99 383.035 514.1 384.795 509.43 384.795 506.29 384.795 503.13 384.105 500.45 382.885 500.24 382.785 500 382.935 500 383.165L500 390.385C500 390.525 500.09 390.645 500.23 390.685 503.18 391.555 506.45 392.025 509.66 392.025 521.15 392.025 526.4 386.285 526.4 380.005 526.4 374.605 522.17 369.855 515.11 368.705 514.98 368.685 514.93 368.525 515.03 368.435Z" fill="#19294B"/><path d="M696.61 373.505C695.56 372.795 694.45 372.245 693.27 371.865 692.09 371.485 690.94 371.145 689.83 370.835 688.72 370.525 687.68 370.215 686.73 369.905 685.77 369.595 685.01 369.145 684.43 368.575 683.85 367.995 683.56 367.245 683.56 366.305 683.56 365.235 684.04 364.405 684.99 363.805 685.95 363.205 687.29 362.905 689.03 362.905 690.94 362.905 692.62 363.235 694.07 363.905 695.17 364.415 696.3 364.975 697.46 365.585 697.67 365.695 697.92 365.545 697.92 365.305L697.92 359.205C697.92 359.085 697.86 358.975 697.75 358.925 696.61 358.325 695.42 357.815 694.16 357.405 692.6 356.895 690.56 356.595 688.02 356.505 686.55 356.505 685.04 356.695 683.48 357.075 681.92 357.455 680.5 358.065 679.21 358.915 677.92 359.765 676.87 360.875 676.07 362.255 675.27 363.635 674.87 365.325 674.87 367.325 674.87 369.015 675.15 370.455 675.7 371.625 676.26 372.805 677 373.775 677.94 374.525 678.87 375.285 679.91 375.885 681.04 376.325 682.17 376.765 683.32 377.125 684.48 377.395 685.64 377.755 686.75 378.105 687.82 378.465 688.89 378.825 689.77 379.255 690.46 379.765 691.15 380.275 691.49 380.995 691.49 381.935 691.49 382.915 691.04 383.745 690.16 384.435 689.27 385.125 687.93 385.465 686.16 385.465 684.65 385.465 683.23 385.285 681.92 384.935 680.61 384.575 679.38 384.105 678.25 383.505 677.29 382.995 676.37 382.465 675.49 381.915 675.28 381.785 675.01 381.935 675.01 382.175L675.01 389.005C675.01 389.125 675.08 389.245 675.2 389.295 676.7 389.975 678.26 390.555 679.89 391.045 681.58 391.555 683.63 391.815 686.03 391.815 688.39 391.815 690.65 391.455 692.8 390.745 694.96 390.035 696.7 388.885 698.04 387.305 699.37 385.725 700.06 383.645 700.11 381.065 700.11 379.105 699.79 377.535 699.14 376.365 698.5 375.165 697.65 374.215 696.61 373.505Z" fill="#19294B"/><path d="M779.59 309.215C779.78 309.125 780 309.265 780 309.475L780 326.565C780 333.445 775.97 339.765 769.74 342.675L727.19 362.515C723.4 364.285 720.96 368.115 720.96 372.295L720.96 373.635C720.96 373.915 720.8 374.165 720.55 374.275L714.39 377.165C714.2 377.255 713.98 377.115 713.98 376.905L713.98 372.285C713.98 365.405 718.01 359.085 724.24 356.175L766.79 336.335C770.58 334.565 773.02 330.735 773.02 326.555L773.02 319.995 727.09 341.505C723.32 343.275 720.88 347.105 720.88 351.275L720.88 352.605C720.88 352.885 720.72 353.135 720.47 353.245L714.31 356.135C714.12 356.225 713.9 356.085 713.9 355.875L713.9 351.275C713.9 344.415 717.92 338.095 724.13 335.185L779.59 309.215ZM714.31 410.785C714.12 410.875 713.9 410.735 713.9 410.525L713.9 393.435C713.9 386.555 717.93 380.235 724.16 377.325L766.71 357.485C770.5 355.715 772.94 351.885 772.94 347.705L772.94 346.365C772.94 346.085 773.1 345.835 773.35 345.725L779.51 342.835C779.7 342.745 779.92 342.885 779.92 343.095L779.92 347.705C779.92 354.585 775.89 360.905 769.66 363.815L727.11 383.655C723.32 385.425 720.88 389.255 720.88 393.435L720.88 399.995 766.81 378.485C770.58 376.715 773.02 372.885 773.02 368.715L773.02 367.385C773.02 367.105 773.18 366.855 773.43 366.745L779.59 363.855C779.78 363.765 780 363.905 780 364.115L780 368.715C780 375.575 775.98 381.895 769.77 384.805L714.31 410.785Z" fill="#B0282B"/></g></svg>